<?xml version="1.0" encoding="utf-8"?>
<!-- Generator: Adobe Illustrator 16.0.4, SVG Export Plug-In . SVG Version: 6.00 Build 0)  -->
<!DOCTYPE svg PUBLIC "-//W3C//DTD SVG 1.1//EN" "http://www.w3.org/Graphics/SVG/1.1/DTD/svg11.dtd">
<svg version="1.1" id="Layer_1" xmlns="http://www.w3.org/2000/svg" xmlns:xlink="http://www.w3.org/1999/xlink" x="0px" y="0px"
	 width="500px" height="500px" viewBox="0 0 500 500" enable-background="new 0 0 500 500" xml:space="preserve">
<g>
	<path fill-rule="evenodd" clip-rule="evenodd" fill="#8E635C" d="M231.772,97.431c2.356,5.205,4.265,9.937,6.679,14.396
		c0.625,1.155,2.83,2.027,4.317,2.039c5.963,0.049,11.93-0.454,17.895-0.457c19.078-0.007,38.172-0.356,57.229,0.309
		c26.532,0.925,53.021,2.884,79.047,8.585c5.29,1.159,10.543,2.938,15.444,5.225c2.537,1.183,6.187,4.402,5.914,6.173
		c-0.434,2.813-3.259,5.986-5.927,7.56c-4.211,2.48-8.988,4.474-13.772,5.424c-17.193,3.412-34.394,7.1-51.772,9.182
		c-20.902,2.503-41.963,4.032-63,4.947c-21.042,0.915-42.149,1.049-63.209,0.628c-30.172-0.603-60.32-2.2-90.016-8.198
		c-5.815-1.174-11.505-3.052-17.165-4.874c-2.168-0.698-4.324-1.87-6.085-3.313c-4.313-3.536-3.886-7.394,0.99-10.325
		c9.81-5.898,20.771-8.497,31.833-10.506c10.753-1.953,21.608-3.346,32.427-4.929c2.687-0.394,3.458-1.669,2.284-4.113
		c-0.648-1.351-1.323-2.689-1.955-4.048c-4.803-10.311-4.829-10.556-15.884-9.275c-19.267,2.231-38.412,5.061-56.79,11.789
		c-20.292,7.43-33.521,21.919-42.037,41.196c-8.071,18.269-11.617,37.628-11.899,57.437c-0.253,17.747-0.24,35.588,1.278,53.247
		c2.557,29.754,9.347,58.719,19.667,86.803c10.664,29.021,25.047,55.811,45.424,79.361c31.88,36.846,72.614,56.182,120.246,62.541
		c38.251,5.106,74.711-1.408,109.895-16.59c28.393-12.25,51.161-31.513,69.799-55.902c21.351-27.94,34.985-59.575,43.995-93.315
		c8.118-30.397,12.137-61.322,12.401-92.855c0.185-22.023-1.145-43.79-6.549-65.121c-4.537-17.905-12.011-34.316-26.038-47.236
		c-11.831-10.896-25.881-16.356-41.365-19.02c-29.397-5.057-59.061-6.315-88.818-6.417c-22.746-0.078-45.491-0.308-68.236-0.46
		C236.212,97.305,234.404,97.38,231.772,97.431z"/>
	<path fill-rule="evenodd" clip-rule="evenodd" fill="#8E635C" d="M10.333,33.228c1.247,6.913,2.394,13.261,3.697,20.482
		c1.847-0.333,3.721-0.671,5.595-1.01c37.705-6.806,75.422-13.558,113.103-20.5c3.948-0.727,6.193-0.07,8.549,3.487
		c16.745,25.296,33.699,50.457,50.74,75.555c6.603,9.726,13.603,19.183,20.695,29.147c7.05-4.753,14.18-9.562,21.729-14.654
		c-6.787-9.926-13.337-19.426-19.805-28.979c-18.311-27.048-36.641-54.086-54.854-81.202c-5.524-8.225-5.361-8.335-15.137-6.57
		c-42.625,7.694-85.249,15.388-127.873,23.082C14.813,32.419,12.855,32.773,10.333,33.228z"/>
</g>
</svg>
